<svg width="175" height="33" viewBox="0 0 175 33" fill="none" xmlns="http://www.w3.org/2000/svg">
<g filter="url(#filter0_d_2_8)">
<path d="M9.62246 3C12.5425 3 14.7825 3.56 16.3425 4.68C17.9225 5.78 18.7125 7.43 18.7125 9.63C18.7125 10.83 18.4925 11.86 18.0525 12.72C17.6325 13.56 17.0125 14.25 16.1925 14.79C15.3925 15.31 14.4125 15.69 13.2525 15.93C12.0925 16.17 10.7825 16.29 9.32246 16.29H7.01246V24H4.10246V3.51C4.92246 3.31 5.83246 3.18 6.83246 3.12C7.85246 3.04 8.78246 3 9.62246 3ZM9.86246 5.55C8.62246 5.55 7.67246 5.58 7.01246 5.64V13.8H9.20246C10.2025 13.8 11.1025 13.74 11.9025 13.62C12.7025 13.48 13.3725 13.26 13.9125 12.96C14.4725 12.64 14.9025 12.21 15.2025 11.67C15.5025 11.13 15.6525 10.44 15.6525 9.6C15.6525 8.8 15.4925 8.14 15.1725 7.62C14.8725 7.1 14.4525 6.69 13.9125 6.39C13.3925 6.07 12.7825 5.85 12.0825 5.73C11.3825 5.61 10.6425 5.55 9.86246 5.55ZM35.2999 16.2C35.2999 17.44 35.1199 18.56 34.7599 19.56C34.3999 20.56 33.8899 21.42 33.2299 22.14C32.5899 22.86 31.8199 23.42 30.9199 23.82C30.0199 24.2 29.0399 24.39 27.9799 24.39C26.9199 24.39 25.9399 24.2 25.0399 23.82C24.1399 23.42 23.3599 22.86 22.6999 22.14C22.0599 21.42 21.5599 20.56 21.1999 19.56C20.8399 18.56 20.6599 17.44 20.6599 16.2C20.6599 14.98 20.8399 13.87 21.1999 12.87C21.5599 11.85 22.0599 10.98 22.6999 10.26C23.3599 9.54 24.1399 8.99 25.0399 8.61C25.9399 8.21 26.9199 8.01 27.9799 8.01C29.0399 8.01 30.0199 8.21 30.9199 8.61C31.8199 8.99 32.5899 9.54 33.2299 10.26C33.8899 10.98 34.3999 11.85 34.7599 12.87C35.1199 13.87 35.2999 14.98 35.2999 16.2ZM32.3899 16.2C32.3899 14.44 31.9899 13.05 31.1899 12.03C30.4099 10.99 29.3399 10.47 27.9799 10.47C26.6199 10.47 25.5399 10.99 24.7399 12.03C23.9599 13.05 23.5699 14.44 23.5699 16.2C23.5699 17.96 23.9599 19.36 24.7399 20.4C25.5399 21.42 26.6199 21.93 27.9799 21.93C29.3399 21.93 30.4099 21.42 31.1899 20.4C31.9899 19.36 32.3899 17.96 32.3899 16.2ZM44.9852 8.07C45.2252 8.07 45.4952 8.09 45.7952 8.13C46.1152 8.15 46.4252 8.19 46.7252 8.25C47.0252 8.29 47.2952 8.34 47.5352 8.4C47.7952 8.44 47.9852 8.48 48.1052 8.52L47.6252 10.95C47.4052 10.87 47.0352 10.78 46.5152 10.68C46.0152 10.56 45.3652 10.5 44.5652 10.5C44.0452 10.5 43.5252 10.56 43.0052 10.68C42.5052 10.78 42.1752 10.85 42.0152 10.89V24H39.2252V9.06C39.8852 8.82 40.7052 8.6 41.6852 8.4C42.6652 8.18 43.7652 8.07 44.9852 8.07ZM53.4075 8.4H59.3175V10.74H53.4075V17.94C53.4075 18.72 53.4675 19.37 53.5875 19.89C53.7075 20.39 53.8875 20.79 54.1275 21.09C54.3675 21.37 54.6675 21.57 55.0275 21.69C55.3875 21.81 55.8075 21.87 56.2875 21.87C57.1275 21.87 57.7975 21.78 58.2975 21.6C58.8175 21.4 59.1775 21.26 59.3775 21.18L59.9175 23.49C59.6375 23.63 59.1475 23.8 58.4475 24C57.7475 24.22 56.9475 24.33 56.0475 24.33C54.9875 24.33 54.1075 24.2 53.4075 23.94C52.7275 23.66 52.1775 23.25 51.7575 22.71C51.3375 22.17 51.0375 21.51 50.8575 20.73C50.6975 19.93 50.6175 19.01 50.6175 17.97V4.05L53.4075 3.57V8.4ZM68.9578 0.719999C69.7778 0.719999 70.4778 0.779999 71.0578 0.899999C71.6578 1.02 72.0778 1.13 72.3178 1.23L71.8078 3.63C71.5678 3.51 71.2278 3.4 70.7878 3.3C70.3478 3.18 69.8078 3.12 69.1678 3.12C67.8678 3.12 66.9578 3.48 66.4378 4.2C65.9178 4.9 65.6578 5.85 65.6578 7.05V8.4H71.6578V10.74H65.6578V24H62.8678V6.99C62.8678 4.99 63.3578 3.45 64.3378 2.37C65.3178 1.27 66.8578 0.719999 68.9578 0.719999ZM88.21 16.2C88.21 17.44 88.03 18.56 87.67 19.56C87.31 20.56 86.8 21.42 86.14 22.14C85.5 22.86 84.73 23.42 83.83 23.82C82.93 24.2 81.95 24.39 80.89 24.39C79.83 24.39 78.85 24.2 77.95 23.82C77.05 23.42 76.27 22.86 75.61 22.14C74.97 21.42 74.47 20.56 74.11 19.56C73.75 18.56 73.57 17.44 73.57 16.2C73.57 14.98 73.75 13.87 74.11 12.87C74.47 11.85 74.97 10.98 75.61 10.26C76.27 9.54 77.05 8.99 77.95 8.61C78.85 8.21 79.83 8.01 80.89 8.01C81.95 8.01 82.93 8.21 83.83 8.61C84.73 8.99 85.5 9.54 86.14 10.26C86.8 10.98 87.31 11.85 87.67 12.87C88.03 13.87 88.21 14.98 88.21 16.2ZM85.3 16.2C85.3 14.44 84.9 13.05 84.1 12.03C83.32 10.99 82.25 10.47 80.89 10.47C79.53 10.47 78.45 10.99 77.65 12.03C76.87 13.05 76.48 14.44 76.48 16.2C76.48 17.96 76.87 19.36 77.65 20.4C78.45 21.42 79.53 21.93 80.89 21.93C82.25 21.93 83.32 21.42 84.1 20.4C84.9 19.36 85.3 17.96 85.3 16.2ZM96.8154 24.3C95.0954 24.26 93.8754 23.89 93.1554 23.19C92.4354 22.49 92.0754 21.4 92.0754 19.92V1.2L94.8654 0.719999V19.47C94.8654 19.93 94.9054 20.31 94.9854 20.61C95.0654 20.91 95.1954 21.15 95.3754 21.33C95.5554 21.51 95.7954 21.65 96.0954 21.75C96.3954 21.83 96.7654 21.9 97.2054 21.96L96.8154 24.3ZM103.128 24H100.338V8.4H103.128V24ZM101.718 5.58C101.218 5.58 100.788 5.42 100.428 5.1C100.088 4.76 99.9185 4.31 99.9185 3.75C99.9185 3.19 100.088 2.75 100.428 2.43C100.788 2.09 101.218 1.92 101.718 1.92C102.218 1.92 102.638 2.09 102.978 2.43C103.338 2.75 103.518 3.19 103.518 3.75C103.518 4.31 103.338 4.76 102.978 5.1C102.638 5.42 102.218 5.58 101.718 5.58ZM121.696 16.2C121.696 17.44 121.516 18.56 121.156 19.56C120.796 20.56 120.286 21.42 119.626 22.14C118.986 22.86 118.216 23.42 117.316 23.82C116.416 24.2 115.436 24.39 114.376 24.39C113.316 24.39 112.336 24.2 111.436 23.82C110.536 23.42 109.756 22.86 109.096 22.14C108.456 21.42 107.956 20.56 107.596 19.56C107.236 18.56 107.056 17.44 107.056 16.2C107.056 14.98 107.236 13.87 107.596 12.87C107.956 11.85 108.456 10.98 109.096 10.26C109.756 9.54 110.536 8.99 111.436 8.61C112.336 8.21 113.316 8.01 114.376 8.01C115.436 8.01 116.416 8.21 117.316 8.61C118.216 8.99 118.986 9.54 119.626 10.26C120.286 10.98 120.796 11.85 121.156 12.87C121.516 13.87 121.696 14.98 121.696 16.2ZM118.786 16.2C118.786 14.44 118.386 13.05 117.586 12.03C116.806 10.99 115.736 10.47 114.376 10.47C113.016 10.47 111.936 10.99 111.136 12.03C110.356 13.05 109.966 14.44 109.966 16.2C109.966 17.96 110.356 19.36 111.136 20.4C111.936 21.42 113.016 21.93 114.376 21.93C115.736 21.93 116.806 21.42 117.586 20.4C118.386 19.36 118.786 17.96 118.786 16.2ZM138.265 3C141.185 3 143.425 3.56 144.985 4.68C146.565 5.78 147.355 7.43 147.355 9.63C147.355 10.83 147.135 11.86 146.695 12.72C146.275 13.56 145.655 14.25 144.835 14.79C144.035 15.31 143.055 15.69 141.895 15.93C140.735 16.17 139.425 16.29 137.965 16.29H135.655V24H132.745V3.51C133.565 3.31 134.475 3.18 135.475 3.12C136.495 3.04 137.425 3 138.265 3ZM138.505 5.55C137.265 5.55 136.315 5.58 135.655 5.64V13.8H137.845C138.845 13.8 139.745 13.74 140.545 13.62C141.345 13.48 142.015 13.26 142.555 12.96C143.115 12.64 143.545 12.21 143.845 11.67C144.145 11.13 144.295 10.44 144.295 9.6C144.295 8.8 144.135 8.14 143.815 7.62C143.515 7.1 143.095 6.69 142.555 6.39C142.035 6.07 141.425 5.85 140.725 5.73C140.025 5.61 139.285 5.55 138.505 5.55ZM151.422 22.38C151.422 22.92 151.242 23.39 150.882 23.79C150.522 24.19 150.032 24.39 149.412 24.39C148.792 24.39 148.302 24.19 147.942 23.79C147.582 23.39 147.402 22.92 147.402 22.38C147.402 21.84 147.582 21.37 147.942 20.97C148.302 20.57 148.792 20.37 149.412 20.37C150.032 20.37 150.522 20.57 150.882 20.97C151.242 21.37 151.422 21.84 151.422 22.38ZM170.17 3.21C169.41 5.41 168.68 7.45 167.98 9.33C167.3 11.19 166.63 12.96 165.97 14.64C165.31 16.32 164.65 17.93 163.99 19.47C163.35 20.99 162.69 22.5 162.01 24H159.28C158.6 22.5 157.93 20.99 157.27 19.47C156.63 17.93 155.97 16.32 155.29 14.64C154.63 12.96 153.95 11.19 153.25 9.33C152.55 7.45 151.83 5.41 151.09 3.21H154.3C155.38 6.37 156.44 9.41 157.48 12.33C158.52 15.25 159.59 17.99 160.69 20.55C161.79 18.01 162.86 15.28 163.9 12.36C164.94 9.42 165.99 6.37 167.05 3.21H170.17Z" fill="#4070F4"/>
<path d="M16.3425 4.68L15.7593 5.49232L15.7651 5.49655L15.7711 5.50069L16.3425 4.68ZM18.0525 12.72L17.1622 12.2645L17.158 12.2728L18.0525 12.72ZM16.1925 14.79L16.7375 15.6285L16.7425 15.6252L16.1925 14.79ZM13.2525 15.93L13.0499 14.9507L13.0499 14.9507L13.2525 15.93ZM7.01246 16.29V15.29H6.01246V16.29H7.01246ZM7.01246 24V25H8.01246V24H7.01246ZM4.10246 24H3.10246V25H4.10246V24ZM4.10246 3.51L3.86551 2.53848L3.10246 2.72459V3.51H4.10246ZM6.83246 3.12L6.89235 4.1182L6.90151 4.11765L6.91065 4.11694L6.83246 3.12ZM7.01246 5.64L6.92193 4.64411L6.01246 4.72678V5.64H7.01246ZM7.01246 13.8H6.01246V14.8H7.01246V13.8ZM11.9025 13.62L12.0508 14.6089L12.0628 14.6071L12.0748 14.605L11.9025 13.62ZM13.9125 12.96L14.3981 13.8342L14.4086 13.8282L13.9125 12.96ZM15.2025 11.67L16.0766 12.1556L16.0766 12.1556L15.2025 11.67ZM15.1725 7.62L14.3063 8.11972L14.3134 8.13201L14.3208 8.1441L15.1725 7.62ZM13.9125 6.39L13.3884 7.24166L13.4073 7.25334L13.4268 7.26416L13.9125 6.39ZM12.0825 5.73L12.2514 4.74438L12.2514 4.74438L12.0825 5.73ZM9.62246 4C12.4357 4 14.4369 4.54294 15.7593 5.49232L16.9257 3.86767C15.128 2.57706 12.6493 2 9.62246 2V4ZM15.7711 5.50069C17.0411 6.38484 17.7125 7.70317 17.7125 9.63H19.7125C19.7125 7.15683 18.8039 5.17516 16.9138 3.85931L15.7711 5.50069ZM17.7125 9.63C17.7125 10.7092 17.5147 11.5756 17.1622 12.2645L18.9427 13.1755C19.4702 12.1444 19.7125 10.9508 19.7125 9.63H17.7125ZM17.158 12.2728C16.8204 12.9481 16.3225 13.507 15.6425 13.9548L16.7425 15.6252C17.7024 14.993 18.4446 14.1719 18.9469 13.1672L17.158 12.2728ZM15.6475 13.9516C14.9737 14.3895 14.1164 14.7301 13.0499 14.9507L13.4551 16.9093C14.7086 16.6499 15.8112 16.2305 16.7374 15.6284L15.6475 13.9516ZM13.0499 14.9507C11.9698 15.1742 10.7294 15.29 9.32246 15.29V17.29C10.8355 17.29 12.2152 17.1658 13.4551 16.9093L13.0499 14.9507ZM9.32246 15.29H7.01246V17.29H9.32246V15.29ZM6.01246 16.29V24H8.01246V16.29H6.01246ZM7.01246 23H4.10246V25H7.01246V23ZM5.10246 24V3.51H3.10246V24H5.10246ZM4.33942 4.48152C5.09175 4.29802 5.94135 4.17526 6.89235 4.1182L6.77257 2.12179C5.72357 2.18473 4.75317 2.32197 3.86551 2.53848L4.33942 4.48152ZM6.91065 4.11694C7.91001 4.03856 8.81344 4 9.62246 4V2C8.75148 2 7.79491 2.04144 6.75427 2.12306L6.91065 4.11694ZM9.86246 4.55C8.61339 4.55 7.62754 4.57996 6.92193 4.64411L7.103 6.63589C7.71738 6.58004 8.63153 6.55 9.86246 6.55V4.55ZM6.01246 5.64V13.8H8.01246V5.64H6.01246ZM7.01246 14.8H9.20246V12.8H7.01246V14.8ZM9.20246 14.8C10.241 14.8 11.1918 14.7378 12.0508 14.6089L11.7541 12.6311C11.0131 12.7422 10.1639 12.8 9.20246 12.8V14.8ZM12.0748 14.605C12.9521 14.4515 13.7354 14.2023 14.3981 13.8342L13.4268 12.0858C13.0096 12.3177 12.4528 12.5085 11.7301 12.635L12.0748 14.605ZM14.4086 13.8282C15.1199 13.4218 15.6839 12.8625 16.0766 12.1556L14.3283 11.1844C14.121 11.5575 13.8251 11.8582 13.4163 12.0918L14.4086 13.8282ZM16.0766 12.1556C16.4835 11.4232 16.6525 10.5514 16.6525 9.6H14.6525C14.6525 10.3286 14.5214 10.8368 14.3283 11.1844L16.0766 12.1556ZM16.6525 9.6C16.6525 8.6711 16.4668 7.81533 16.0241 7.0959L14.3208 8.1441C14.5181 8.46467 14.6525 8.92889 14.6525 9.6H16.6525ZM16.0386 7.12028C15.6454 6.43858 15.0917 5.90118 14.3981 5.51584L13.4268 7.26416C13.8132 7.47882 14.0996 7.76142 14.3063 8.11972L16.0386 7.12028ZM14.4366 5.53834C13.7916 5.14144 13.057 4.88248 12.2514 4.74438L11.9135 6.71562C12.5079 6.81752 12.9933 6.99856 13.3884 7.24166L14.4366 5.53834ZM12.2514 4.74438C11.4905 4.61393 10.6936 4.55 9.86246 4.55V6.55C10.5913 6.55 11.2744 6.60607 11.9135 6.71562L12.2514 4.74438ZM34.7599 19.56L35.7008 19.8987L35.7008 19.8987L34.7599 19.56ZM33.2299 22.14L32.4927 21.4643L32.4876 21.4699L32.4825 21.4756L33.2299 22.14ZM30.9199 23.82L31.3089 24.7412L31.3175 24.7376L31.326 24.7338L30.9199 23.82ZM25.0399 23.82L24.6337 24.7338L24.6423 24.7376L24.6509 24.7412L25.0399 23.82ZM22.6999 22.14L21.9525 22.8044L21.9576 22.8101L21.9627 22.8157L22.6999 22.14ZM21.1999 19.56L20.259 19.8987L20.259 19.8987L21.1999 19.56ZM21.1999 12.87L22.1408 13.2087L22.1429 13.2028L21.1999 12.87ZM22.6999 10.26L21.9627 9.58427L21.9576 9.58992L21.9525 9.59564L22.6999 10.26ZM25.0399 8.61L25.4289 9.53125L25.4375 9.52761L25.446 9.52381L25.0399 8.61ZM30.9199 8.61L30.5137 9.52381L30.5223 9.52761L30.5309 9.53125L30.9199 8.61ZM33.2299 10.26L32.4825 10.9244L32.4876 10.9301L32.4927 10.9357L33.2299 10.26ZM34.7599 12.87L33.8169 13.2028L33.819 13.2087L34.7599 12.87ZM31.1899 12.03L30.3899 12.63L30.3964 12.6386L30.403 12.6471L31.1899 12.03ZM24.7399 12.03L23.9473 11.4203L23.9455 11.4225L24.7399 12.03ZM24.7399 20.4L23.9399 21L23.9464 21.0086L23.953 21.0171L24.7399 20.4ZM31.1899 20.4L30.3973 19.7903L30.3955 19.7925L31.1899 20.4ZM34.2999 16.2C34.2999 17.3434 34.134 18.3464 33.819 19.2213L35.7008 19.8987C36.1058 18.7736 36.2999 17.5366 36.2999 16.2H34.2999ZM33.819 19.2213C33.4999 20.1076 33.0555 20.8503 32.4927 21.4643L33.967 22.8157C34.7242 21.9897 35.2999 21.0124 35.7008 19.8987L33.819 19.2213ZM32.4825 21.4756C31.9393 22.0867 31.2865 22.5627 30.5137 22.9062L31.326 24.7338C32.3533 24.2773 33.2405 23.6333 33.9773 22.8044L32.4825 21.4756ZM30.5309 22.8988C29.7641 23.2225 28.9177 23.39 27.9799 23.39V25.39C29.162 25.39 30.2756 25.1775 31.3089 24.7412L30.5309 22.8988ZM27.9799 23.39C27.042 23.39 26.1956 23.2225 25.4289 22.8988L24.6509 24.7412C25.6841 25.1775 26.7977 25.39 27.9799 25.39V23.39ZM25.446 22.9062C24.6705 22.5615 24.0034 22.0822 23.437 21.4643L21.9627 22.8157C22.7163 23.6378 23.6093 24.2785 24.6337 24.7338L25.446 22.9062ZM23.4473 21.4756C22.9003 20.8602 22.4621 20.1138 22.1408 19.2213L20.259 19.8987C20.6577 21.0062 21.2195 21.9798 21.9525 22.8044L23.4473 21.4756ZM22.1408 19.2213C21.8258 18.3464 21.6599 17.3434 21.6599 16.2H19.6599C19.6599 17.5366 19.854 18.7736 20.259 19.8987L22.1408 19.2213ZM21.6599 16.2C21.6599 15.0787 21.8252 14.0853 22.1408 13.2087L20.259 12.5313C19.8546 13.6547 19.6599 14.8813 19.6599 16.2H21.6599ZM22.1429 13.2028C22.465 12.29 22.9033 11.5364 23.4473 10.9244L21.9525 9.59564C21.2165 10.4236 20.6547 11.41 20.2569 12.5372L22.1429 13.2028ZM23.437 10.9357C23.9999 10.3216 24.6612 9.85538 25.4289 9.53125L24.6509 7.68875C23.6186 8.12462 22.7198 8.75835 21.9627 9.58427L23.437 10.9357ZM25.446 9.52381C26.2086 9.18487 27.049 9.01 27.9799 9.01V7.01C26.7908 7.01 25.6711 7.23513 24.6337 7.69619L25.446 9.52381ZM27.9799 9.01C28.9108 9.01 29.7511 9.18487 30.5137 9.52381L31.326 7.69619C30.2886 7.23513 29.169 7.01 27.9799 7.01V9.01ZM30.5309 9.53125C31.2958 9.85421 31.9428 10.3172 32.4825 10.9244L33.9773 9.59563C33.237 8.76279 32.344 8.12579 31.3089 7.68875L30.5309 9.53125ZM32.4927 10.9357C33.0524 11.5463 33.4969 12.2961 33.8169 13.2028L35.7029 12.5372C35.3029 11.4039 34.7274 10.4137 33.967 9.58427L32.4927 10.9357ZM33.819 13.2087C34.1346 14.0853 34.2999 15.0787 34.2999 16.2H36.2999C36.2999 14.8813 36.1052 13.6547 35.7008 12.5313L33.819 13.2087ZM33.3899 16.2C33.3899 14.2956 32.9569 12.6626 31.9767 11.4129L30.403 12.6471C31.0228 13.4374 31.3899 14.5844 31.3899 16.2H33.3899ZM31.9899 11.43C31.0111 10.1249 29.6376 9.47 27.9799 9.47V11.47C29.0421 11.47 29.8087 11.8551 30.3899 12.63L31.9899 11.43ZM27.9799 9.47C26.3227 9.47 24.9445 10.1239 23.9473 11.4203L25.5325 12.6397C26.1353 11.8561 26.9171 11.47 27.9799 11.47V9.47ZM23.9455 11.4225C22.9905 12.6715 22.5699 14.3006 22.5699 16.2H24.5699C24.5699 14.5794 24.9293 13.4285 25.5342 12.6374L23.9455 11.4225ZM22.5699 16.2C22.5699 18.1007 22.991 19.7349 23.9399 21L25.5399 19.8C24.9287 18.9851 24.5699 17.8193 24.5699 16.2H22.5699ZM23.953 21.0171C24.9531 22.2923 26.3302 22.93 27.9799 22.93V20.93C26.9095 20.93 26.1266 20.5477 25.5267 19.7829L23.953 21.0171ZM27.9799 22.93C29.6299 22.93 31.0024 22.2914 31.9842 21.0075L30.3955 19.7925C29.8174 20.5486 29.0498 20.93 27.9799 20.93V22.93ZM31.9825 21.0097C32.9564 19.7436 33.3899 18.1057 33.3899 16.2H31.3899C31.3899 17.8143 31.0234 18.9764 30.3973 19.7903L31.9825 21.0097ZM45.7952 8.13L45.663 9.12123L45.6978 9.12586L45.7328 9.12805L45.7952 8.13ZM46.7252 8.25L46.5291 9.23058L46.5609 9.23694L46.593 9.24123L46.7252 8.25ZM47.5352 8.4L47.2927 9.37014L47.3375 9.38135L47.3831 9.38837L47.5352 8.4ZM48.1052 8.52L49.0862 8.71379L49.2569 7.8498L48.4214 7.57131L48.1052 8.52ZM47.6252 10.95L47.2835 11.8898L48.3801 12.2886L48.6062 11.1438L47.6252 10.95ZM46.5152 10.68L46.2818 11.6524L46.304 11.6577L46.3263 11.662L46.5152 10.68ZM43.0052 10.68L43.2013 11.6606L43.2157 11.6577L43.2301 11.6544L43.0052 10.68ZM42.0152 10.89L41.7727 9.91986L41.0152 10.1092V10.89H42.0152ZM42.0152 24V25H43.0152V24H42.0152ZM39.2252 24H38.2252V25H39.2252V24ZM39.2252 9.06L38.8835 8.12021L38.2252 8.35957V9.06H39.2252ZM41.6852 8.4L41.8852 9.3798L41.8947 9.37785L41.9042 9.37572L41.6852 8.4ZM44.9852 9.07C45.1713 9.07 45.3961 9.08564 45.663 9.12123L45.9274 7.13877C45.5943 7.09436 45.279 7.07 44.9852 7.07V9.07ZM45.7328 9.12805C46.01 9.14538 46.2753 9.17982 46.5291 9.23058L46.9213 7.26942C46.5751 7.20018 46.2204 7.15462 45.8576 7.13195L45.7328 9.12805ZM46.593 9.24123C46.8637 9.27732 47.096 9.32097 47.2927 9.37014L47.7777 7.42986C47.4944 7.35903 47.1867 7.30268 46.8574 7.25877L46.593 9.24123ZM47.3831 9.38837C47.6336 9.4269 47.7536 9.45688 47.789 9.46868L48.4214 7.57131C48.2168 7.50312 47.9568 7.4531 47.6873 7.41163L47.3831 9.38837ZM47.1242 8.32621L46.6442 10.7562L48.6062 11.1438L49.0862 8.71379L47.1242 8.32621ZM47.9669 10.0102C47.666 9.90077 47.2278 9.79872 46.704 9.69799L46.3263 11.662C46.8426 11.7613 47.1444 11.8392 47.2835 11.8898L47.9669 10.0102ZM46.7486 9.70761C46.1422 9.56208 45.4055 9.5 44.5652 9.5V11.5C45.3249 11.5 45.8882 11.5579 46.2818 11.6524L46.7486 9.70761ZM44.5652 9.5C43.9675 9.5 43.3721 9.56904 42.7803 9.70561L43.2301 11.6544C43.6783 11.551 44.1228 11.5 44.5652 11.5V9.5ZM42.8091 9.69942C42.3135 9.79853 41.9598 9.87308 41.7727 9.91986L42.2577 11.8601C42.3906 11.8269 42.6969 11.7615 43.2013 11.6606L42.8091 9.69942ZM41.0152 10.89V24H43.0152V10.89H41.0152ZM42.0152 23H39.2252V25H42.0152V23ZM40.2252 24V9.06H38.2252V24H40.2252ZM39.5669 9.99979C40.1659 9.78199 40.9349 9.57373 41.8852 9.3798L41.4852 7.42019C40.4755 7.62627 39.6045 7.85801 38.8835 8.12021L39.5669 9.99979ZM41.9042 9.37572C42.799 9.17486 43.8238 9.07 44.9852 9.07V7.07C43.7066 7.07 42.5314 7.18514 41.4662 7.42428L41.9042 9.37572ZM53.4075 8.4H52.4075V9.4H53.4075V8.4ZM59.3175 8.4H60.3175V7.4H59.3175V8.4ZM59.3175 10.74V11.74H60.3175V10.74H59.3175ZM53.4075 10.74V9.74H52.4075V10.74H53.4075ZM53.5875 19.89L52.613 20.1149L52.6151 20.1234L53.5875 19.89ZM54.1275 21.09L53.3466 21.7147L53.3572 21.7279L53.3682 21.7408L54.1275 21.09ZM55.0275 21.69L55.3437 20.7413L55.3437 20.7413L55.0275 21.69ZM58.2975 21.6L58.6362 22.5409L58.6464 22.5372L58.6564 22.5333L58.2975 21.6ZM59.3775 21.18L60.3512 20.9524L60.0864 19.8194L59.0061 20.2515L59.3775 21.18ZM59.9175 23.49L60.3647 24.3844L61.071 24.0313L60.8912 23.2624L59.9175 23.49ZM58.4475 24L58.1727 23.0385L58.1601 23.0421L58.1476 23.046L58.4475 24ZM53.4075 23.94L53.0267 24.8647L53.0429 24.8713L53.0593 24.8774L53.4075 23.94ZM51.7575 22.71L52.5468 22.0961L52.5468 22.0961L51.7575 22.71ZM50.8575 20.73L49.8769 20.9261L49.8798 20.9405L49.8831 20.9549L50.8575 20.73ZM50.6175 4.05L50.4479 3.06448L49.6175 3.20735V4.05H50.6175ZM53.4075 3.57H54.4075V2.38326L53.2379 2.58448L53.4075 3.57ZM53.4075 9.4H59.3175V7.4H53.4075V9.4ZM58.3175 8.4V10.74H60.3175V8.4H58.3175ZM59.3175 9.74H53.4075V11.74H59.3175V9.74ZM52.4075 10.74V17.94H54.4075V10.74H52.4075ZM52.4075 17.94C52.4075 18.7643 52.4702 19.4958 52.6131 20.1149L54.5619 19.6651C54.4647 19.2442 54.4075 18.6757 54.4075 17.94H52.4075ZM52.6151 20.1234C52.7583 20.7203 52.9892 21.268 53.3466 21.7147L54.9083 20.4653C54.7857 20.312 54.6566 20.0597 54.5598 19.6566L52.6151 20.1234ZM53.3682 21.7408C53.7297 22.1625 54.1845 22.4631 54.7112 22.6387L55.3437 20.7413C55.1504 20.6769 55.0052 20.5775 54.8867 20.4392L53.3682 21.7408ZM54.7112 22.6387C55.1961 22.8003 55.7271 22.87 56.2875 22.87V20.87C55.8878 20.87 55.5788 20.8197 55.3437 20.7413L54.7112 22.6387ZM56.2875 22.87C57.1839 22.87 57.9832 22.776 58.6362 22.5409L57.9587 20.6591C57.6117 20.784 57.0711 20.87 56.2875 20.87V22.87ZM58.6564 22.5333C59.1761 22.3335 59.5419 22.1913 59.7489 22.1085L59.0061 20.2515C58.813 20.3287 58.4588 20.4665 57.9385 20.6667L58.6564 22.5333ZM58.4037 21.4076L58.9437 23.7176L60.8912 23.2624L60.3512 20.9524L58.4037 21.4076ZM59.4702 22.5956C59.2811 22.6902 58.8705 22.8391 58.1727 23.0385L58.7222 24.9615C59.4245 24.7609 59.9939 24.5698 60.3647 24.3844L59.4702 22.5956ZM58.1476 23.046C57.5637 23.2295 56.8679 23.33 56.0475 23.33V25.33C57.027 25.33 57.9312 25.2105 58.7473 24.954L58.1476 23.046ZM56.0475 23.33C55.0605 23.33 54.3081 23.2078 53.7556 23.0026L53.0593 24.8774C53.9068 25.1922 54.9145 25.33 56.0475 25.33V23.33ZM53.7882 23.0153C53.2567 22.7965 52.852 22.4884 52.5468 22.0961L50.9681 23.3239C51.5029 24.0116 52.1983 24.5235 53.0267 24.8647L53.7882 23.0153ZM52.5468 22.0961C52.23 21.6887 51.9847 21.1675 51.8319 20.5051L49.8831 20.9549C50.0902 21.8525 50.445 22.6513 50.9681 23.3239L52.5468 22.0961ZM51.838 20.5339C51.6939 19.8132 51.6175 18.9611 51.6175 17.97H49.6175C49.6175 19.0589 49.701 20.0468 49.8769 20.9261L51.838 20.5339ZM51.6175 17.97V4.05H49.6175V17.97H51.6175ZM50.787 5.03552L53.577 4.55552L53.2379 2.58448L50.4479 3.06448L50.787 5.03552ZM52.4075 3.57V8.4H54.4075V3.57H52.4075ZM71.0578 0.899999L70.8552 1.87928L70.8617 1.88058L71.0578 0.899999ZM72.3178 1.23L73.2959 1.43786L73.4684 0.626105L72.7024 0.306921L72.3178 1.23ZM71.8078 3.63L71.3606 4.52443L72.5171 5.10273L72.7859 3.83786L71.8078 3.63ZM70.7878 3.3L70.5247 4.26476L70.5453 4.27039L70.5662 4.27513L70.7878 3.3ZM66.4378 4.2L67.2406 4.79638L67.2485 4.78549L66.4378 4.2ZM65.6578 8.4H64.6578V9.4H65.6578V8.4ZM71.6578 8.4H72.6578V7.4H71.6578V8.4ZM71.6578 10.74V11.74H72.6578V10.74H71.6578ZM65.6578 10.74V9.74H64.6578V10.74H65.6578ZM65.6578 24V25H66.6578V24H65.6578ZM62.8678 24H61.8678V25H62.8678V24ZM64.3378 2.37L65.0784 3.04202L65.0844 3.03521L64.3378 2.37ZM68.9578 1.72C69.7336 1.72 70.3617 1.77717 70.8552 1.87926L71.2604 -0.0792618C70.5938 -0.217172 69.8219 -0.280001 68.9578 -0.280001V1.72ZM70.8617 1.88058C71.4601 2.00027 71.7934 2.09483 71.9332 2.15308L72.7024 0.306921C72.3622 0.165167 71.8554 0.0397231 71.2539 -0.080582L70.8617 1.88058ZM71.3396 1.02214L70.8296 3.42214L72.7859 3.83786L73.2959 1.43786L71.3396 1.02214ZM72.255 2.73557C71.9112 2.56365 71.4823 2.43235 71.0094 2.32487L70.5662 4.27513C70.9732 4.36765 71.2244 4.45634 71.3606 4.52443L72.255 2.73557ZM71.0509 2.33523C70.4984 2.18456 69.8639 2.12 69.1678 2.12V4.12C69.7517 4.12 70.1971 4.17543 70.5247 4.26476L71.0509 2.33523ZM69.1678 2.12C67.7036 2.12 66.4112 2.52882 65.6271 3.61451L67.2485 4.78549C67.5043 4.43118 68.032 4.12 69.1678 4.12V2.12ZM65.635 3.60368C64.9466 4.53039 64.6578 5.71444 64.6578 7.05H66.6578C66.6578 5.98556 66.8889 5.26961 67.2405 4.79632L65.635 3.60368ZM64.6578 7.05V8.4H66.6578V7.05H64.6578ZM65.6578 9.4H71.6578V7.4H65.6578V9.4ZM70.6578 8.4V10.74H72.6578V8.4H70.6578ZM71.6578 9.74H65.6578V11.74H71.6578V9.74ZM64.6578 10.74V24H66.6578V10.74H64.6578ZM65.6578 23H62.8678V25H65.6578V23ZM63.8678 24V6.99H61.8678V24H63.8678ZM63.8678 6.99C63.8678 5.14543 64.3187 3.87911 65.0783 3.04199L63.5972 1.69801C62.3968 3.02089 61.8678 4.83457 61.8678 6.99H63.8678ZM65.0844 3.03521C65.8051 2.22624 67.0184 1.72 68.9578 1.72V-0.280001C66.6971 -0.280001 64.8304 0.313756 63.5911 1.70479L65.0844 3.03521ZM87.67 19.56L88.6109 19.8987L88.6109 19.8987L87.67 19.56ZM86.14 22.14L85.4029 21.4643L85.3977 21.4699L85.3926 21.4756L86.14 22.14ZM83.83 23.82L84.219 24.7412L84.2276 24.7376L84.2362 24.7338L83.83 23.82ZM77.95 23.82L77.5439 24.7338L77.5524 24.7376L77.5611 24.7412L77.95 23.82ZM75.61 22.14L74.8626 22.8044L74.8677 22.8101L74.8729 22.8157L75.61 22.14ZM74.11 19.56L73.1692 19.8987L73.1692 19.8987L74.11 19.56ZM74.11 12.87L75.0509 13.2087L75.053 13.2028L74.11 12.87ZM75.61 10.26L74.8729 9.58427L74.8677 9.58992L74.8626 9.59564L75.61 10.26ZM77.95 8.61L78.339 9.53125L78.3476 9.52761L78.3562 9.52381L77.95 8.61ZM83.83 8.61L83.4239 9.52381L83.4324 9.52761L83.4411 9.53125L83.83 8.61ZM86.14 10.26L85.3926 10.9244L85.3977 10.9301L85.4029 10.9357L86.14 10.26ZM87.67 12.87L86.727 13.2028L86.7292 13.2087L87.67 12.87ZM84.1 12.03L83.3 12.63L83.3065 12.6386L83.3132 12.6471L84.1 12.03ZM77.65 12.03L76.8574 11.4203L76.8557 11.4225L77.65 12.03ZM77.65 20.4L76.85 21L76.8565 21.0086L76.8632 21.0171L77.65 20.4ZM84.1 20.4L83.3074 19.7903L83.3057 19.7925L84.1 20.4ZM87.21 16.2C87.21 17.3434 87.0441 18.3464 86.7292 19.2213L88.6109 19.8987C89.016 18.7736 89.21 17.5366 89.21 16.2H87.21ZM86.7292 19.2213C86.4101 20.1076 85.9657 20.8503 85.4029 21.4643L86.8772 22.8157C87.6344 21.9897 88.21 21.0124 88.6109 19.8987L86.7292 19.2213ZM85.3926 21.4756C84.8495 22.0867 84.1967 22.5627 83.4239 22.9062L84.2362 24.7338C85.2634 24.2773 86.1506 23.6333 86.8874 22.8044L85.3926 21.4756ZM83.4411 22.8988C82.6743 23.2225 81.8279 23.39 80.89 23.39V25.39C82.0722 25.39 83.1858 25.1775 84.219 24.7412L83.4411 22.8988ZM80.89 23.39C79.9522 23.39 79.1058 23.2225 78.339 22.8988L77.5611 24.7412C78.5943 25.1775 79.7079 25.39 80.89 25.39V23.39ZM78.3562 22.9062C77.5806 22.5615 76.9136 22.0822 76.3472 21.4643L74.8729 22.8157C75.6265 23.6378 76.5195 24.2785 77.5439 24.7338L78.3562 22.9062ZM76.3574 21.4756C75.8104 20.8602 75.3722 20.1138 75.0509 19.2213L73.1692 19.8987C73.5678 21.0062 74.1296 21.9798 74.8626 22.8044L76.3574 21.4756ZM75.0509 19.2213C74.736 18.3464 74.57 17.3434 74.57 16.2H72.57C72.57 17.5366 72.7641 18.7736 73.1692 19.8987L75.0509 19.2213ZM74.57 16.2C74.57 15.0787 74.7354 14.0853 75.0509 13.2087L73.1692 12.5313C72.7647 13.6547 72.57 14.8813 72.57 16.2H74.57ZM75.053 13.2028C75.3752 12.29 75.8134 11.5364 76.3574 10.9244L74.8626 9.59564C74.1266 10.4236 73.5649 11.41 73.167 12.5372L75.053 13.2028ZM76.3472 10.9357C76.9101 10.3216 77.5713 9.85538 78.339 9.53125L77.5611 7.68875C76.5287 8.12462 75.63 8.75835 74.8729 9.58427L76.3472 10.9357ZM78.3562 9.52381C79.1188 9.18487 79.9591 9.01 80.89 9.01V7.01C79.7009 7.01 78.5813 7.23513 77.5439 7.69619L78.3562 9.52381ZM80.89 9.01C81.8209 9.01 82.6613 9.18487 83.4239 9.52381L84.2362 7.69619C83.1988 7.23513 82.0791 7.01 80.89 7.01V9.01ZM83.4411 9.53125C84.206 9.85421 84.8529 10.3172 85.3926 10.9244L86.8874 9.59563C86.1471 8.76279 85.2541 8.12579 84.219 7.68875L83.4411 9.53125ZM85.4029 10.9357C85.9626 11.5463 86.407 12.2961 86.727 13.2028L88.613 12.5372C88.213 11.4039 87.6375 10.4137 86.8772 9.58427L85.4029 10.9357ZM86.7292 13.2087C87.0447 14.0853 87.21 15.0787 87.21 16.2H89.21C89.21 14.8813 89.0154 13.6547 88.6109 12.5313L86.7292 13.2087ZM86.3 16.2C86.3 14.2956 85.8671 12.6626 84.8869 11.4129L83.3132 12.6471C83.933 13.4374 84.3 14.5844 84.3 16.2H86.3ZM84.9 11.43C83.9212 10.1249 82.5478 9.47 80.89 9.47V11.47C81.9523 11.47 82.7189 11.8551 83.3 12.63L84.9 11.43ZM80.89 9.47C79.2328 9.47 77.8546 10.1239 76.8574 11.4203L78.4427 12.6397C79.0454 11.8561 79.8273 11.47 80.89 11.47V9.47ZM76.8557 11.4225C75.9006 12.6715 75.48 14.3006 75.48 16.2H77.48C77.48 14.5794 77.8394 13.4285 78.4444 12.6374L76.8557 11.4225ZM75.48 16.2C75.48 18.1007 75.9012 19.7349 76.85 21L78.45 19.8C77.8389 18.9851 77.48 17.8193 77.48 16.2H75.48ZM76.8632 21.0171C77.8633 22.2923 79.2404 22.93 80.89 22.93V20.93C79.8197 20.93 79.0368 20.5477 78.4369 19.7829L76.8632 21.0171ZM80.89 22.93C82.5401 22.93 83.9126 22.2914 84.8944 21.0075L83.3057 19.7925C82.7275 20.5486 81.96 20.93 80.89 20.93V22.93ZM84.8927 21.0097C85.8666 19.7436 86.3 18.1057 86.3 16.2H84.3C84.3 17.8143 83.9335 18.9764 83.3074 19.7903L84.8927 21.0097ZM96.8154 24.3L96.7921 25.2997L97.6592 25.3199L97.8017 24.4644L96.8154 24.3ZM93.1554 23.19L93.8524 22.473L93.8524 22.473L93.1554 23.19ZM92.0754 1.2L91.9058 0.214477L91.0754 0.35735V1.2H92.0754ZM94.8654 0.719999H95.8654V-0.466735L94.6958 -0.265522L94.8654 0.719999ZM94.9854 20.61L95.9516 20.3523L95.9516 20.3523L94.9854 20.61ZM95.3754 21.33L94.6682 22.0371L94.6682 22.0371L95.3754 21.33ZM96.0954 21.75L95.7791 22.6987L95.8081 22.7084L95.8377 22.7162L96.0954 21.75ZM97.2054 21.96L98.1917 22.1244L98.3611 21.1083L97.3405 20.9692L97.2054 21.96ZM96.8386 23.3003C95.2046 23.2623 94.2999 22.9081 93.8524 22.473L92.4583 23.907C93.4508 24.8719 94.9861 25.2577 96.7921 25.2997L96.8386 23.3003ZM93.8524 22.473C93.4018 22.0349 93.0754 21.2578 93.0754 19.92H91.0754C91.0754 21.5422 91.4689 22.9451 92.4583 23.907L93.8524 22.473ZM93.0754 19.92V1.2H91.0754V19.92H93.0754ZM92.2449 2.18552L95.0349 1.70552L94.6958 -0.265522L91.9058 0.214477L92.2449 2.18552ZM93.8654 0.719999V19.47H95.8654V0.719999H93.8654ZM93.8654 19.47C93.8654 19.9795 93.9087 20.4538 94.0191 20.8677L95.9516 20.3523C95.902 20.1662 95.8654 19.8805 95.8654 19.47H93.8654ZM94.0191 20.8677C94.1345 21.3005 94.3392 21.708 94.6682 22.0371L96.0825 20.6229C96.0515 20.592 95.9962 20.5195 95.9516 20.3523L94.0191 20.8677ZM94.6682 22.0371C94.9814 22.3502 95.3668 22.5612 95.7791 22.6987L96.4116 20.8013C96.2239 20.7388 96.1293 20.6698 96.0825 20.6229L94.6682 22.0371ZM95.8377 22.7162C96.191 22.8105 96.6049 22.8874 97.0702 22.9508L97.3405 20.9692C96.9258 20.9126 96.5997 20.8495 96.353 20.7838L95.8377 22.7162ZM96.219 21.7956L95.829 24.1356L97.8017 24.4644L98.1917 22.1244L96.219 21.7956ZM103.128 24V25H104.128V24H103.128ZM100.338 24H99.3385V25H100.338V24ZM100.338 8.4V7.4H99.3385V8.4H100.338ZM103.128 8.4H104.128V7.4H103.128V8.4ZM100.428 5.1L99.7214 5.80711L99.7421 5.82788L99.7641 5.84741L100.428 5.1ZM100.428 2.43L101.114 3.1582L101.115 3.15701L100.428 2.43ZM102.978 2.43L102.271 3.13711L102.292 3.15788L102.314 3.17741L102.978 2.43ZM102.978 5.1L103.664 5.8282L103.665 5.82701L102.978 5.1ZM103.128 23H100.338V25H103.128V23ZM101.338 24V8.4H99.3385V24H101.338ZM100.338 9.4H103.128V7.4H100.338V9.4ZM102.128 8.4V24H104.128V8.4H102.128ZM101.718 4.58C101.453 4.58 101.262 4.50321 101.093 4.35259L99.7641 5.84741C100.315 6.33679 100.984 6.58 101.718 6.58V4.58ZM101.136 4.39289C101.014 4.27134 100.918 4.09196 100.918 3.75H98.9185C98.9185 4.52804 99.1629 5.24866 99.7214 5.80711L101.136 4.39289ZM100.918 3.75C100.918 3.4063 101.014 3.25203 101.114 3.1582L99.7431 1.7018C99.1628 2.24797 98.9185 2.9737 98.9185 3.75H100.918ZM101.115 3.15701C101.287 2.99422 101.471 2.92 101.718 2.92V0.919998C100.966 0.919998 100.289 1.18577 99.7419 1.70299L101.115 3.15701ZM101.718 2.92C101.965 2.92 102.127 2.99282 102.271 3.13711L103.686 1.72289C103.15 1.18718 102.472 0.919998 101.718 0.919998V2.92ZM102.314 3.17741C102.425 3.2761 102.518 3.42445 102.518 3.75H104.518C104.518 2.95555 104.252 2.2239 103.643 1.68259L102.314 3.17741ZM102.518 3.75C102.518 4.07449 102.425 4.24748 102.292 4.37298L103.665 5.82701C104.252 5.27252 104.518 4.54551 104.518 3.75H102.518ZM102.293 4.3718C102.153 4.5041 101.984 4.58 101.718 4.58V6.58C102.453 6.58 103.124 6.3359 103.664 5.8282L102.293 4.3718ZM121.156 19.56L122.097 19.8987L122.097 19.8987L121.156 19.56ZM119.626 22.14L118.889 21.4643L118.884 21.4699L118.879 21.4756L119.626 22.14ZM117.316 23.82L117.705 24.7412L117.714 24.7376L117.723 24.7338L117.316 23.82ZM111.436 23.82L111.03 24.7338L111.039 24.7376L111.047 24.7412L111.436 23.82ZM109.096 22.14L108.349 22.8044L108.354 22.8101L108.359 22.8157L109.096 22.14ZM107.596 19.56L106.655 19.8987L106.655 19.8987L107.596 19.56ZM107.596 12.87L108.537 13.2087L108.539 13.2028L107.596 12.87ZM109.096 10.26L108.359 9.58427L108.354 9.58992L108.349 9.59564L109.096 10.26ZM111.436 8.61L111.825 9.53125L111.834 9.52761L111.843 9.52381L111.436 8.61ZM117.316 8.61L116.91 9.52381L116.919 9.52761L116.927 9.53125L117.316 8.61ZM119.626 10.26L118.879 10.9244L118.884 10.9301L118.889 10.9357L119.626 10.26ZM121.156 12.87L120.213 13.2028L120.215 13.2087L121.156 12.87ZM117.586 12.03L116.786 12.63L116.793 12.6386L116.8 12.6471L117.586 12.03ZM111.136 12.03L110.344 11.4203L110.342 11.4225L111.136 12.03ZM111.136 20.4L110.336 21L110.343 21.0086L110.35 21.0171L111.136 20.4ZM117.586 20.4L116.794 19.7903L116.792 19.7925L117.586 20.4ZM120.696 16.2C120.696 17.3434 120.53 18.3464 120.215 19.2213L122.097 19.8987C122.502 18.7736 122.696 17.5366 122.696 16.2H120.696ZM120.215 19.2213C119.896 20.1076 119.452 20.8503 118.889 21.4643L120.364 22.8157C121.121 21.9897 121.696 21.0124 122.097 19.8987L120.215 19.2213ZM118.879 21.4756C118.336 22.0867 117.683 22.5627 116.91 22.9062L117.723 24.7338C118.75 24.2773 119.637 23.6333 120.374 22.8044L118.879 21.4756ZM116.927 22.8988C116.161 23.2225 115.314 23.39 114.376 23.39V25.39C115.559 25.39 116.672 25.1775 117.705 24.7412L116.927 22.8988ZM114.376 23.39C113.439 23.39 112.592 23.2225 111.825 22.8988L111.047 24.7412C112.081 25.1775 113.194 25.39 114.376 25.39V23.39ZM111.843 22.9062C111.067 22.5615 110.4 22.0822 109.834 21.4643L108.359 22.8157C109.113 23.6378 110.006 24.2785 111.03 24.7338L111.843 22.9062ZM109.844 21.4756C109.297 20.8602 108.859 20.1138 108.537 19.2213L106.655 19.8987C107.054 21.0062 107.616 21.9798 108.349 22.8044L109.844 21.4756ZM108.537 19.2213C108.222 18.3464 108.056 17.3434 108.056 16.2H106.056C106.056 17.5366 106.25 18.7736 106.655 19.8987L108.537 19.2213ZM108.056 16.2C108.056 15.0787 108.222 14.0853 108.537 13.2087L106.655 12.5313C106.251 13.6547 106.056 14.8813 106.056 16.2H108.056ZM108.539 13.2028C108.862 12.29 109.3 11.5364 109.844 10.9244L108.349 9.59564C107.613 10.4236 107.051 11.41 106.653 12.5372L108.539 13.2028ZM109.834 10.9357C110.396 10.3216 111.058 9.85538 111.825 9.53125L111.047 7.68875C110.015 8.12462 109.116 8.75835 108.359 9.58427L109.834 10.9357ZM111.843 9.52381C112.605 9.18487 113.445 9.01 114.376 9.01V7.01C113.187 7.01 112.068 7.23513 111.03 7.69619L111.843 9.52381ZM114.376 9.01C115.307 9.01 116.148 9.18487 116.91 9.52381L117.723 7.69619C116.685 7.23513 115.565 7.01 114.376 7.01V9.01ZM116.927 9.53125C117.692 9.85421 118.339 10.3172 118.879 10.9244L120.374 9.59563C119.633 8.76279 118.74 8.12579 117.705 7.68875L116.927 9.53125ZM118.889 10.9357C119.449 11.5463 119.893 12.2961 120.213 13.2028L122.099 12.5372C121.699 11.4039 121.124 10.4137 120.364 9.58427L118.889 10.9357ZM120.215 13.2087C120.531 14.0853 120.696 15.0787 120.696 16.2H122.696C122.696 14.8813 122.502 13.6547 122.097 12.5313L120.215 13.2087ZM119.786 16.2C119.786 14.2956 119.353 12.6626 118.373 11.4129L116.8 12.6471C117.419 13.4374 117.786 14.5844 117.786 16.2H119.786ZM118.386 11.43C117.408 10.1249 116.034 9.47 114.376 9.47V11.47C115.439 11.47 116.205 11.8551 116.786 12.63L118.386 11.43ZM114.376 9.47C112.719 9.47 111.341 10.1239 110.344 11.4203L111.929 12.6397C112.532 11.8561 113.314 11.47 114.376 11.47V9.47ZM110.342 11.4225C109.387 12.6715 108.966 14.3006 108.966 16.2H110.966C110.966 14.5794 111.326 13.4285 111.931 12.6374L110.342 11.4225ZM108.966 16.2C108.966 18.1007 109.388 19.7349 110.336 21L111.936 19.8C111.325 18.9851 110.966 17.8193 110.966 16.2H108.966ZM110.35 21.0171C111.35 22.2923 112.727 22.93 114.376 22.93V20.93C113.306 20.93 112.523 20.5477 111.923 19.7829L110.35 21.0171ZM114.376 22.93C116.026 22.93 117.399 22.2914 118.381 21.0075L116.792 19.7925C116.214 20.5486 115.446 20.93 114.376 20.93V22.93ZM118.379 21.0097C119.353 19.7436 119.786 18.1057 119.786 16.2H117.786C117.786 17.8143 117.42 18.9764 116.794 19.7903L118.379 21.0097ZM144.985 4.68L144.402 5.49232L144.408 5.49655L144.414 5.50069L144.985 4.68ZM146.695 12.72L145.805 12.2645L145.801 12.2728L146.695 12.72ZM144.835 14.79L145.38 15.6285L145.385 15.6252L144.835 14.79ZM141.895 15.93L141.692 14.9507L141.692 14.9507L141.895 15.93ZM135.655 16.29V15.29H134.655V16.29H135.655ZM135.655 24V25H136.655V24H135.655ZM132.745 24H131.745V25H132.745V24ZM132.745 3.51L132.508 2.53848L131.745 2.72459V3.51H132.745ZM135.475 3.12L135.535 4.1182L135.544 4.11765L135.553 4.11694L135.475 3.12ZM135.655 5.64L135.565 4.64411L134.655 4.72678V5.64H135.655ZM135.655 13.8H134.655V14.8H135.655V13.8ZM140.545 13.62L140.693 14.6089L140.705 14.6071L140.717 14.605L140.545 13.62ZM142.555 12.96L143.041 13.8342L143.051 13.8282L142.555 12.96ZM143.845 11.67L144.719 12.1556L144.719 12.1556L143.845 11.67ZM143.815 7.62L142.949 8.11972L142.956 8.13201L142.963 8.1441L143.815 7.62ZM142.555 6.39L142.031 7.24166L142.05 7.25334L142.069 7.26416L142.555 6.39ZM140.725 5.73L140.894 4.74438L140.894 4.74438L140.725 5.73ZM138.265 4C141.078 4 143.079 4.54294 144.402 5.49232L145.568 3.86767C143.771 2.57706 141.292 2 138.265 2V4ZM144.414 5.50069C145.684 6.38484 146.355 7.70317 146.355 9.63H148.355C148.355 7.15683 147.446 5.17516 145.556 3.85931L144.414 5.50069ZM146.355 9.63C146.355 10.7092 146.157 11.5756 145.805 12.2645L147.585 13.1755C148.113 12.1444 148.355 10.9508 148.355 9.63H146.355ZM145.801 12.2728C145.463 12.9481 144.965 13.507 144.285 13.9548L145.385 15.6252C146.345 14.993 147.087 14.1719 147.589 13.1672L145.801 12.2728ZM144.29 13.9516C143.616 14.3895 142.759 14.7301 141.692 14.9507L142.098 16.9093C143.351 16.6499 144.454 16.2305 145.38 15.6284L144.29 13.9516ZM141.692 14.9507C140.612 15.1742 139.372 15.29 137.965 15.29V17.29C139.478 17.29 140.858 17.1658 142.098 16.9093L141.692 14.9507ZM137.965 15.29H135.655V17.29H137.965V15.29ZM134.655 16.29V24H136.655V16.29H134.655ZM135.655 23H132.745V25H135.655V23ZM133.745 24V3.51H131.745V24H133.745ZM132.982 4.48152C133.734 4.29802 134.584 4.17526 135.535 4.1182L135.415 2.12179C134.366 2.18473 133.396 2.32197 132.508 2.53848L132.982 4.48152ZM135.553 4.11694C136.553 4.03856 137.456 4 138.265 4V2C137.394 2 136.437 2.04144 135.397 2.12306L135.553 4.11694ZM138.505 4.55C137.256 4.55 136.27 4.57996 135.565 4.64411L135.746 6.63589C136.36 6.58004 137.274 6.55 138.505 6.55V4.55ZM134.655 5.64V13.8H136.655V5.64H134.655ZM135.655 14.8H137.845V12.8H135.655V14.8ZM137.845 14.8C138.884 14.8 139.834 14.7378 140.693 14.6089L140.397 12.6311C139.656 12.7422 138.806 12.8 137.845 12.8V14.8ZM140.717 14.605C141.595 14.4515 142.378 14.2023 143.041 13.8342L142.069 12.0858C141.652 12.3177 141.095 12.5085 140.373 12.635L140.717 14.605ZM143.051 13.8282C143.762 13.4218 144.326 12.8625 144.719 12.1556L142.971 11.1844C142.764 11.5575 142.468 11.8582 142.059 12.0918L143.051 13.8282ZM144.719 12.1556C145.126 11.4232 145.295 10.5514 145.295 9.6H143.295C143.295 10.3286 143.164 10.8368 142.971 11.1844L144.719 12.1556ZM145.295 9.6C145.295 8.6711 145.109 7.81533 144.667 7.0959L142.963 8.1441C143.161 8.46467 143.295 8.92889 143.295 9.6H145.295ZM144.681 7.12028C144.288 6.43858 143.734 5.90118 143.041 5.51584L142.069 7.26416C142.456 7.47882 142.742 7.76142 142.949 8.11972L144.681 7.12028ZM143.079 5.53834C142.434 5.14144 141.7 4.88248 140.894 4.74438L140.556 6.71562C141.15 6.81752 141.636 6.99856 142.031 7.24166L143.079 5.53834ZM140.894 4.74438C140.133 4.61393 139.336 4.55 138.505 4.55V6.55C139.234 6.55 139.917 6.60607 140.556 6.71562L140.894 4.74438ZM150.882 23.79L150.138 23.121L150.138 23.121L150.882 23.79ZM147.942 23.79L147.198 24.459L147.198 24.459L147.942 23.79ZM147.942 20.97L147.198 20.301L147.198 20.301L147.942 20.97ZM150.882 20.97L150.138 21.639L150.138 21.639L150.882 20.97ZM150.422 22.38C150.422 22.6739 150.332 22.9054 150.138 23.121L151.625 24.459C152.151 23.8746 152.422 23.1661 152.422 22.38H150.422ZM150.138 23.121C149.998 23.2774 149.796 23.39 149.412 23.39V25.39C150.268 25.39 151.046 25.1026 151.625 24.459L150.138 23.121ZM149.412 23.39C149.028 23.39 148.826 23.2774 148.685 23.121L147.198 24.459C147.778 25.1026 148.556 25.39 149.412 25.39V23.39ZM148.685 23.121C148.491 22.9054 148.402 22.6739 148.402 22.38H146.402C146.402 23.1661 146.672 23.8746 147.198 24.459L148.685 23.121ZM148.402 22.38C148.402 22.0861 148.491 21.8546 148.685 21.639L147.198 20.301C146.672 20.8854 146.402 21.5939 146.402 22.38H148.402ZM148.685 21.639C148.826 21.4826 149.028 21.37 149.412 21.37V19.37C148.556 19.37 147.778 19.6574 147.198 20.301L148.685 21.639ZM149.412 21.37C149.796 21.37 149.998 21.4826 150.138 21.639L151.625 20.301C151.046 19.6574 150.268 19.37 149.412 19.37V21.37ZM150.138 21.639C150.332 21.8546 150.422 22.0861 150.422 22.38H152.422C152.422 21.5939 152.151 20.8854 151.625 20.301L150.138 21.639ZM170.17 3.21L171.115 3.53652L171.573 2.21H170.17V3.21ZM167.98 9.33L167.043 8.98106L167.041 8.98664L167.98 9.33ZM165.97 14.64L166.901 15.0057L166.901 15.0057L165.97 14.64ZM163.99 19.47L163.071 19.0761L163.068 19.0819L163.99 19.47ZM162.01 24V25H162.655L162.921 24.4129L162.01 24ZM159.28 24L158.369 24.4129L158.635 25H159.28V24ZM157.27 19.47L156.347 19.8538L156.35 19.861L156.353 19.8683L157.27 19.47ZM155.29 14.64L154.359 15.0057L154.363 15.0152L155.29 14.64ZM153.25 9.33L152.313 9.67894L152.314 9.68223L153.25 9.33ZM151.09 3.21V2.21H149.699L150.142 3.52881L151.09 3.21ZM154.3 3.21L155.246 2.88659L155.015 2.21H154.3V3.21ZM157.48 12.33L158.422 11.9945L158.422 11.9945L157.48 12.33ZM160.69 20.55L159.771 20.9448L160.686 23.0746L161.608 20.9474L160.69 20.55ZM163.9 12.36L164.842 12.6955L164.843 12.6935L163.9 12.36ZM167.05 3.21V2.21H166.331L166.102 2.89197L167.05 3.21ZM169.225 2.88348C168.467 5.07713 167.74 7.10957 167.043 8.98106L168.917 9.67894C169.62 7.79043 170.353 5.74287 171.115 3.53652L169.225 2.88348ZM167.041 8.98664C166.363 10.8399 165.696 12.6024 165.039 14.2743L166.901 15.0057C167.564 13.3176 168.237 11.5401 168.919 9.67336L167.041 8.98664ZM165.039 14.2743C164.383 15.9456 163.727 17.5461 163.071 19.0761L164.909 19.8639C165.573 18.3139 166.237 16.6944 166.901 15.0057L165.039 14.2743ZM163.068 19.0819C162.432 20.5936 161.776 22.0954 161.099 23.5871L162.921 24.4129C163.605 22.9046 164.268 21.3864 164.912 19.8581L163.068 19.0819ZM162.01 23H159.28V25H162.01V23ZM160.191 23.5871C159.513 22.092 158.845 20.5869 158.187 19.0717L156.353 19.8683C157.015 21.3931 157.687 22.908 158.369 24.4129L160.191 23.5871ZM158.193 19.0862C157.555 17.5493 156.896 15.9422 156.217 14.2648L154.363 15.0152C155.044 16.6978 155.705 18.3107 156.347 19.8538L158.193 19.0862ZM156.221 14.2743C155.563 12.5992 154.884 10.8337 154.186 8.97777L152.314 9.68223C153.016 11.5463 153.697 13.3208 154.359 15.0057L156.221 14.2743ZM154.187 8.98106C153.491 7.11245 152.775 5.08261 152.038 2.89119L150.142 3.52881C150.885 5.73739 151.609 7.78755 152.313 9.67894L154.187 8.98106ZM151.09 4.21H154.3V2.21H151.09V4.21ZM153.354 3.5334C154.435 6.69714 155.496 9.74119 156.538 12.6655L158.422 11.9945C157.384 9.0788 156.325 6.04285 155.246 2.88659L153.354 3.5334ZM156.538 12.6655C157.584 15.6033 158.662 18.3633 159.771 20.9448L161.609 20.1552C160.518 17.6167 159.456 14.8967 158.422 11.9945L156.538 12.6655ZM161.608 20.9474C162.717 18.3848 163.795 15.634 164.842 12.6955L162.958 12.0245C161.925 14.926 160.863 17.6352 159.772 20.1526L161.608 20.9474ZM164.843 12.6935C165.885 9.74801 166.937 6.69285 167.998 3.52803L166.102 2.89197C165.044 6.04715 163.995 9.09198 162.957 12.0265L164.843 12.6935ZM167.05 4.21H170.17V2.21H167.05V4.21Z" fill="#4070F4"/>
</g>
<defs>
<filter id="filter0_d_2_8" x="0.102463" y="0.719971" width="174.068" height="31.67" filterUnits="userSpaceOnUse" color-interpolation-filters="sRGB">
<feFlood flood-opacity="0" result="BackgroundImageFix"/>
<feColorMatrix in="SourceAlpha" type="matrix" values="0 0 0 0 0 0 0 0 0 0 0 0 0 0 0 0 0 0 127 0" result="hardAlpha"/>
<feOffset dy="4"/>
<feGaussianBlur stdDeviation="2"/>
<feComposite in2="hardAlpha" operator="out"/>
<feColorMatrix type="matrix" values="0 0 0 0 0 0 0 0 0 0 0 0 0 0 0 0 0 0 0.25 0"/>
<feBlend mode="normal" in2="BackgroundImageFix" result="effect1_dropShadow_2_8"/>
<feBlend mode="normal" in="SourceGraphic" in2="effect1_dropShadow_2_8" result="shape"/>
</filter>
</defs>
</svg>
